<?xml version="1.0" encoding="UTF-8"?>
<svg width="205px" height="54px" viewBox="0 0 205 54" version="1.1" xmlns="http://www.w3.org/2000/svg" xmlns:xlink="http://www.w3.org/1999/xlink">
    <!-- Generator: Sketch 58 (84663) - https://sketch.com -->
    <title>Group 64</title>
    <desc>Created with Sketch.</desc>
    <defs>
        <polygon id="path-1" points="0.000192945572 0.0231891892 19.9480176 0.0231891892 19.9480176 38.8565432 0.000192945572 38.8565432"></polygon>
    </defs>
    <g id="Páginas" stroke="none" stroke-width="1" fill="none" fill-rule="evenodd">
        <g id="LP-SIMULAÇÃO-ONLINE---GERAL" transform="translate(-107.000000, -18.000000)">
            <g id="Group" transform="translate(0.000000, -3.000000)">
                <g id="Group-64" transform="translate(107.000000, 21.000000)">
                    <g id="Group-35">
                        <mask id="mask-2" fill="white">
                            <use xlink:href="#path-1"></use>
                        </mask>
                        <g id="Clip-34"></g>
                        <path d="M9.18042105,38.8565432 C9.46357895,38.8565432 9.712,38.6668135 9.78568421,38.3927595 L19.9256842,0.814678378 C20.0341053,0.416245946 19.7341053,0.0230837838 19.3214737,0.0230837838 L10.7677895,0.0230837838 C10.4846316,0.0230837838 10.2362105,0.213867568 10.1625263,0.486867568 L0.0225263158,38.0660027 C-0.0858947368,38.4644351 0.214105263,38.8565432 0.626736842,38.8565432 L9.18042105,38.8565432 Z" id="Fill-33" fill="#114880" mask="url(#mask-2)"></path>
                    </g>
                    <path d="M9.62818268,54 L18.2042398,54 C18.4881384,54 18.7372092,53.8094514 18.8110861,53.5342146 L28.9776082,15.7939524 C29.0863129,15.3938004 28.7855282,15 28.3718173,15 L19.7957602,15 C19.5118616,15 19.2627908,15.1905486 19.1889139,15.4647268 L9.02239179,53.2060476 C8.91368715,53.6061996 9.21447182,54 9.62818268,54" id="Fill-36" fill="#0090CF"></path>
                    <path d="M26.6307126,39 L35.2320941,39 C35.5178894,39 35.7666372,38.8097335 35.8407323,38.5349042 L41.9779228,15.7917199 C42.0858899,15.3921603 41.7842171,15 41.3703431,15 L32.7679031,15 C32.4831662,15 32.2333599,15.1902665 32.1603233,15.4650958 L26.0220744,38.2072231 C25.9141072,38.6067826 26.2157801,39 26.6307126,39" id="Fill-38" fill="#114880"></path>
                    <path d="M43.9447398,39 L198.429499,39 C198.85693,39 199.230404,38.7135433 199.341494,38.3023563 L204.966874,16.1881083 C205.128747,15.588769 204.676982,15 204.055937,15 L49.9097373,15 C49.4833638,15 49.1088322,15.2853997 48.9988003,15.6976437 L43.0327448,37.8118917 C42.871929,38.411231 43.3236945,39 43.9447398,39" id="Fill-40" fill="#114880"></path>
                    <path d="M195.854675,32.9517385 L195.961382,32.9517385 C196.086382,32.9517385 196.186992,32.9091853 196.186992,32.8064349 C196.186992,32.7151012 196.121951,32.654904 195.979675,32.654904 C195.919715,32.654904 195.878049,32.6611313 195.854675,32.6673586 L195.854675,32.9517385 Z M195.848577,33.5153088 L195.622967,33.5153088 L195.622967,32.5210171 C195.712398,32.5033731 195.836382,32.4909185 195.996951,32.4909185 C196.180894,32.4909185 196.264228,32.5210171 196.335366,32.5635703 C196.388211,32.6061235 196.429878,32.6850026 196.429878,32.7825636 C196.429878,32.8915413 196.347561,32.9756098 196.228659,33.0119357 L196.228659,33.0243902 C196.323171,33.0607161 196.377033,33.1333679 196.406504,33.2672548 C196.435976,33.4187857 196.454268,33.4789829 196.477642,33.5153088 L196.234756,33.5153088 C196.204268,33.4789829 196.186992,33.3876492 196.15752,33.2734821 C196.139228,33.1634665 196.080285,33.1157239 195.955285,33.1157239 L195.848577,33.1157239 L195.848577,33.5153088 Z M195.248984,32.9942916 C195.248984,33.4364297 195.569106,33.7882719 196.009146,33.7882719 C196.435976,33.7882719 196.751016,33.4364297 196.751016,33.0005189 C196.751016,32.5583809 196.435976,32.2003114 196.003049,32.2003114 C195.569106,32.2003114 195.248984,32.5583809 195.248984,32.9942916 L195.248984,32.9942916 Z M197,32.9942916 C197,33.557862 196.567073,34 196.003049,34 C195.445122,34 195,33.557862 195,32.9942916 C195,32.4431759 195.445122,32 196.003049,32 C196.567073,32 197,32.4431759 197,32.9942916 L197,32.9942916 Z" id="Fill-42" fill="#FFFFFF"></path>
                    <path d="M60.2349934,26.107254 C61.3329926,26.107254 61.8267855,25.6061767 61.8267855,25.0490783 C61.8267855,24.5106536 61.4250037,24.2876067 60.5100044,24.2876067 L58.7341902,24.2876067 L58.2587995,26.107254 L60.2349934,26.107254 Z M59.1001899,30.7123933 C60.1429823,30.7123933 60.7655908,30.2486633 60.7655908,29.5981965 C60.7655908,29.0410981 60.3086023,28.7817413 59.393603,28.7817413 L57.5452023,28.7817413 L57.0319848,30.7123933 L59.1001899,30.7123933 Z M55.4401928,21 L61.1131883,21 C65.0481963,21 66,22.466922 66,24.0645599 C66,25.6424866 64.9561852,26.9610566 62.9983935,27.481845 C64.2068059,27.7972229 65.0850007,28.7070465 65.0850007,30.0442902 C65.0850007,32.2353364 63.3643932,34 58.9723967,34 L52,34 L55.4401928,21 Z" id="Fill-44" fill="#FFFFFF"></path>
                    <polygon id="Fill-46" fill="#FFFFFF" points="68.5920154 21 80 21 79.0061913 24.5656372 71.9929547 24.5656372 71.6300171 25.8842072 78.6646029 25.8842072 77.8042272 29.0224244 70.7707088 29.0224244 70.3693424 30.4343628 77.4775833 30.4343628 76.5029889 34 65 34"></polygon>
                    <polygon id="Fill-48" fill="#FFFFFF" points="82.466888 21 86.7270906 21 88.2766298 25.5688293 92.2596875 21 97 21 93.5320817 34 89.2358194 34 90.9502032 27.5555024 86.7456356 32.1793153 86.6724858 32.1793153 84.9385267 27.5555024 83.2231126 34 79 34"></polygon>
                    <path d="M106.056695,27.3698029 C107.744834,27.3698029 108.522671,26.627005 108.522671,25.6424866 C108.522671,25.3644561 108.40928,25.0853882 108.200515,24.8810151 C107.896374,24.5843109 107.365453,24.4733062 106.872682,24.4733062 L106.03762,24.4733062 L105.259784,27.3698029 L106.056695,27.3698029 Z M102.565968,21 L107.024222,21 C109.471123,21 110.969571,21.4647674 111.956173,22.4295747 C112.657709,23.1173889 113,24.0272125 113,25.0480409 C113,28.2983002 110.495875,30.4717102 106.284536,30.4717102 L104.406707,30.4717102 L103.439179,34 L99,34 L102.565968,21 Z" id="Fill-50" fill="#FFFFFF"></path>
                    <path d="M120.08192,27.1841034 C121.593288,27.1841034 122.387947,26.5149629 122.387947,25.6985077 C122.387947,25.4381135 122.291591,25.1974304 122.097799,25.0117309 C121.845543,24.7700104 121.399495,24.640332 120.759654,24.640332 L119.151931,24.640332 L118.435222,27.1841034 L120.08192,27.1841034 Z M115.644172,21 L120.935042,21 C123.434861,21 125.024179,21.519751 125.934681,22.3932647 C126.690364,23.1173889 127,24.0821962 127,25.1040619 C127,27.1280824 125.895706,28.8740723 123.221581,29.6728912 L125.101047,34 L120.21725,34 L118.705882,30.2860107 L117.5821,30.2860107 L116.535186,34 L112,34 L115.644172,21 Z" id="Fill-52" fill="#FFFFFF"></path>
                    <path d="M136.670856,26.5004604 C136.670856,25.0770411 135.841455,23.9619398 134.294818,23.9619398 C132.489893,23.9619398 131.329144,25.8075506 131.329144,27.5006139 C131.329144,28.9240331 132.157516,30.0391344 133.705182,30.0391344 C135.510107,30.0391344 136.670856,28.1924494 136.670856,26.5004604 M127,27.9045427 C127,23.7309699 130.261007,20 134.589122,20 C138.384197,20 141,22.6545427 141,26.0965316 C141,30.2701044 137.738993,34 133.410878,34 C129.615803,34 127,31.3465316 127,27.9045427" id="Fill-54" fill="#FFFFFF"></path>
                    <polygon id="Fill-56" fill="#FFFFFF" points="146.831535 24.6769354 143 24.6769354 143.985935 21 156 21 155.014065 24.6769354 151.183569 24.6769354 148.672501 34 144.320467 34"></polygon>
                    <polygon id="Fill-58" fill="#FFFFFF" points="157.592015 21 169 21 168.006191 24.5656372 160.992955 24.5656372 160.630017 25.8842072 167.51836 25.8842072 166.657985 29.0224244 159.770709 29.0224244 159.369342 30.4343628 166.477583 30.4343628 165.502989 34 154 34"></polygon>
                    <path d="M168,28.0162241 C168,23.6245504 171.337625,20 176.566778,20 C179.014576,20 181.110174,21.0928293 182,22.224229 L179.29323,25.1009413 C178.551535,24.3916737 177.438994,23.8924007 176.28916,23.8924007 C173.822716,23.8924007 172.357973,25.6377133 172.357973,27.805158 C172.357973,29.4744012 173.525416,30.2983087 174.879319,30.2983087 C175.343396,30.2983087 175.714243,30.2222392 176.010507,30.0872427 L176.437292,28.6494222 L174.304403,28.6494222 L175.009841,25.7727099 L181.258306,25.7727099 L179.40407,32.6189638 C178.12475,33.4053723 176.28916,34 174.416278,34 C171.189493,34 168,32.2354022 168,28.0162241" id="Fill-60" fill="#FFFFFF"></path>
                    <polygon id="Fill-62" fill="#FFFFFF" points="184.592015 21 196 21 195.006191 24.5656372 187.992955 24.5656372 187.630017 25.8842072 194.67421 25.8842072 193.814902 29.0224244 186.770709 29.0224244 186.369342 30.4343628 193.477583 30.4343628 192.502989 34 181 34"></polygon>
                </g>
            </g>
        </g>
    </g>
</svg>